# xmcd CD database file
#
# Track frame offsets:
#	150
#	15312
#	29511
#	48014
#	61296
#	82667
#	107023
#	124470
#	140197
#	159258
#	172570
#	193600
#
# Disc length: 2732 seconds
#
# Revision: 2
# Processed by: cddbd v1.5.2PL0 Copyright (c) Steve Scherf et al.
# Submitted via: CDex 1.70beta2
#
DISCID=8c0aaa0c
DTITLE=STS - STS  CD1
DYEAR=2009
DGENRE=Pop
TTITLE0=Irgendwann bleib i dann dort
TTITLE1=Gö, du bleibst heut Nacht bei mir
TTITLE2=Überdosis G'fühl
TTITLE3=Da kummt di Sunn
TTITLE4=Großvater
TTITLE5=Fürstenfeld
TTITLE6=Zeig mir dein' Himmel
TTITLE7=Sinnlos, aber schön
TTITLE8=I bin aus Österreich
TTITLE9=Wunder meiner Seligkeit
TTITLE10=Das Feuer
TTITLE11=He, alter Liedersänger
EXTD=YEAR: 2009
EXTT0=
EXTT1=
EXTT2=
EXTT3=
EXTT4=
EXTT5=
EXTT6=
EXTT7=
EXTT8=
EXTT9=
EXTT10=
EXTT11=
PLAYORDER=
